<?xml version="1.0" encoding="UTF-8" standalone="no"?>
<!-- Created with Inkscape (http://www.inkscape.org/) -->

<svg
   xmlns:dc="http://purl.org/dc/elements/1.1/"
   xmlns:cc="http://creativecommons.org/ns#"
   xmlns:rdf="http://www.w3.org/1999/02/22-rdf-syntax-ns#"
   xmlns:svg="http://www.w3.org/2000/svg"
   xmlns="http://www.w3.org/2000/svg"
   xmlns:sodipodi="http://sodipodi.sourceforge.net/DTD/sodipodi-0.dtd"
   xmlns:inkscape="http://www.inkscape.org/namespaces/inkscape"
   width="210mm"
   height="297mm"
   id="svg2"
   version="1.1"
   inkscape:version="0.48.2 r9819"
   sodipodi:docname="Novo documento 1">
  <defs
     id="defs4">
 <style
   id="style3033"
   type="text/css">
   
    .str0 {stroke:#373435;stroke-width:0.2}
    .fil1 {fill:none}
    .fil0 {fill:#A7C4D2}
   
  </style>

  
  
  
  
  
  
  
  
  
  
  
  
  
  
  
  
  
  
  
  
  
  
  
  
  
  
  
  
  
  
  
  
 </defs>
  <sodipodi:namedview
     id="base"
     pagecolor="#ffffff"
     bordercolor="#666666"
     borderopacity="1.0"
     inkscape:pageopacity="0.0"
     inkscape:pageshadow="2"
     inkscape:zoom="0.35"
     inkscape:cx="350"
     inkscape:cy="748.57143"
     inkscape:document-units="px"
     inkscape:current-layer="layer1"
     showgrid="false"
     inkscape:window-width="1440"
     inkscape:window-height="876"
     inkscape:window-x="0"
     inkscape:window-y="24"
     inkscape:window-maximized="1" />
  <metadata
     id="metadata7">
    <rdf:RDF>
      <cc:Work
         rdf:about="">
        <dc:format>image/svg+xml</dc:format>
        <dc:type
           rdf:resource="http://purl.org/dc/dcmitype/StillImage" />
        <dc:title></dc:title>
      </cc:Work>
    </rdf:RDF>
  </metadata>
  <g
     inkscape:label="Camada 1"
     inkscape:groupmode="layer"
     id="layer1">
    <path
       style="fill-rule:evenodd"
       id="t_1"
       d="m -23.160183,61.484619 c -1.334055,9.622913 1.478268,17.018858 8.437677,22.187834 39.434881,-51.516494 62.351573,-116.51669 68.750077,-195.000233 -25.844527,-18.15271 -53.76117977,-33.56929 -83.749959,-46.25008 -15.496298,3.8452 -29.246456,9.67855 -41.250117,17.50004 -11.663149,1.66855 -24.163227,1.66855 -37.500235,0 -10.82445,30.17587 -25.40764,46.842522 -43.74992,49.999963 -12.15709,1.217126 -20.90728,4.133976 -26.24988,8.750196 -12.72756,-4.059921 -20.22768,-16.143306 -22.5,-36.250159 -9.70937,24.488152 -2.20925,49.071261 22.5,73.75004 -9.71043,61.89307 -28.46055,115.642911 -56.25,161.25023 11.81516,6.42047 22.23177,12.67051 31.24984,18.75012 -5.39858,14.50382 -14.14842,24.08705 -26.24988,28.75004 0.77917,17.50677 8.69598,39.17338 23.75008,64.99984 10.68697,0.3685 24.02043,-8.38134 40.00004,-26.24988 -0.48402,-11.15681 1.1824,-19.49032 4.99996,-25.00016 7.33854,-7.49338 20.77618,-9.68067 40.3122,-6.56256 -0.56126,-11.66244 -1.18594,-36.45425 -1.87476,-74.375074 14.05275,-0.216851 31.344446,-4.175433 51.875075,-11.875039 -2.169921,-16.682953 -2.378268,-24.391417 -0.625039,-23.125039 17.500747,-0.37878 33.542361,-0.795472 48.124841,-1.250079 z"
       class="territorio"
       inkscape:connector-curvature="0"
       inkscape:label="#path3037" />
    <path
       style="fill-rule:evenodd"
       id="path3039"
       d="m -165.97246,203.67399 c -14.61189,17.08157 -27.94536,25.83177 -40.00004,26.24988 4.04539,45.00425 1.23378,89.90043 -8.4352,134.68818 3.09827,4.35012 11.95264,6.22524 26.5624,5.62536 -0.008,-9.59953 9.47091,-8.24528 28.43752,4.0624 14.09811,-27.86563 38.16071,-56.61567 72.187795,-86.25012 4.131142,-12.66201 -0.452126,-20.05795 -13.750155,-22.18748 -0.78166,-7.48949 -1.51087,-18.94783 -2.18764,-34.37539 23.160472,-9.73913 38.264881,-20.88496 45.312873,-33.43748 3.131575,-23.67283 -8.535117,-27.73524 -35.000077,-12.18756 -18.543546,-9.16689 -27.815316,-13.75051 -27.815316,-13.75051 -35.38205,-4.44402 -50.4861,6.07677 -45.31216,31.56272 z"
       class="territorio"
       inkscape:connector-curvature="0" />
    <path
       style="fill-rule:evenodd"
       id="path3041"
       d="m 13.563359,306.33068 c 0.215433,19.31456 -8.2218892,34.73149 -25.312676,46.25007 -3.196772,3.79843 -15.175984,10.25681 -35.937637,19.37516 -3.830315,-8.74772 -9.038622,-14.0602 -15.624921,-15.93744 -14.406732,25.60323 -33.417283,33.15508 -57.031295,22.65591 -22.08544,1.3709 -35.10673,-0.0872 -39.06461,-4.37493 14.98784,-28.817 38.59725,-57.1709 70.828229,-85.06169 18.257952,5.25331 35.846928,1.78441 52.767636,-10.40704 16.039488,7.96252 32.4977945,17.12905 49.375274,27.49996 z"
       class="territorio"
       inkscape:connector-curvature="0" />
    <path
       style="fill-rule:evenodd"
       id="path3043"
       d="m -35.811915,278.82753 c 21.145393,10.86838 37.6036999,20.03527 49.375274,27.49996 0.02162,-0.60591 0.05457,-1.21075 0.09673,-1.81524 l -3.55e-4,-0.0142 c 0.24626,7.55256 -0.957047,14.94815 -3.610275,22.18677 7.84311,0.32138 16.02496,3.50964 24.54555,9.56516 30.896929,0.69803 50.480078,-2.84386 58.750156,-10.62496 -1.962992,-8.93764 -9.254763,-17.0628 -21.875314,-24.37512 C 55.596902,281.39572 45.305367,266.21265 40.594894,255.70107 19.315918,244.3515 6.9200131,231.85143 3.4071786,218.20084 c -10.1756691,8.2559 -21.3214956,8.77677 -33.4374796,1.56259 -9.846141,-8.32287 -19.117913,-15.56255 -27.814606,-21.7187 -9.284527,14.24162 -24.388936,25.38744 -45.312873,33.43748 0.43441,11.47926 1.16362,22.9376 2.18764,34.3754 13.862124,1.94811 17.992203,9.74019 12.390589,23.3759 19.240157,5.05311 36.829487,1.58421 52.767636,-10.40705 z m 49.473778,25.66204 c 0.757559,-10.80283 4.795512,-21.43488 12.112441,-31.89649 -5.168622,8.59252 -9.206575,19.22386 -12.112441,31.89649 z m 19.749685,-42.22665 c 0.133228,-0.14563 0.266457,-0.29055 0.400748,-0.43441 l -0.400748,0.43441 z m 0.503858,-0.54425 c 0.142795,-0.15236 0.286299,-0.30366 0.430512,-0.45354 -0.144213,0.15023 -0.287717,0.30118 -0.430512,0.45354 z m 0.505276,-0.5315 c 0.146693,-0.15236 0.294094,-0.3033 0.442204,-0.45354 -0.147755,0.15024 -0.295511,0.30118 -0.442204,0.45354 z m 0.54,-0.55275 c 0.149527,-0.15095 0.299409,-0.29977 0.45,-0.44859 -0.150591,0.14847 -0.300473,0.29764 -0.45,0.44859 z m 0.527598,-0.52547 c 0.14563,-0.1428 0.291969,-0.28418 0.438662,-0.4252 -0.146693,0.14102 -0.293032,0.2824 -0.438662,0.4252 z m 0.604843,-0.58394 c 0.141378,-0.13465 0.283464,-0.26823 0.425905,-0.4011 -0.142441,0.13252 -0.284527,0.26645 -0.425905,0.4011 z m 0.511653,-0.48083 c 0.159449,-0.14775 0.319252,-0.29409 0.480118,-0.43937 -0.160866,0.14563 -0.320669,0.29162 -0.480118,0.43937 z m 0.547087,-0.49996 c 0.166181,-0.14953 0.332716,-0.29835 0.500315,-0.44504 -0.167244,0.14705 -0.334134,0.29551 -0.500315,0.44504 z m 0.577559,-0.51307 c 0.169724,-0.14846 0.339803,-0.29516 0.510945,-0.44114 -0.171142,0.14563 -0.341221,0.29268 -0.510945,0.44114 z m 0.510945,-0.44114 0.01807,-0.0142 c 0.188149,-0.16015 0.377362,-0.31889 0.567637,-0.47586 l 0.02374,-0.0213 c 0.172205,-0.14209 0.345119,-0.28276 0.518386,-0.42201 -0.173267,0.13925 -0.346535,0.27992 -0.518386,0.42201 m 0.599882,-0.48756 c 0.378426,-0.3026 0.76004,-0.59917 1.145197,-0.88972 -0.384803,0.29055 -0.766771,0.58712 -1.145197,0.88972 z"
       class="territorio"
       inkscape:connector-curvature="0" />
    <path
       style="fill-rule:evenodd"
       id="path3045"
       d="m -120.6603,172.11021 c -0.76181,-19.52256 -1.38685,-44.31437 -1.87476,-74.37508 53.523776,12.5876 83.448066,40.79161 89.773224,84.61134 14.237362,1.66996 31.94574694,4.79515 53.124802,9.37488 -1.899567,19.00453 5.392204,35.04614 21.875314,48.12484 1.062992,4.11378 0.515197,9.40004 -1.643386,15.85842 -17.425629,-7.67586 -29.821535,-20.17594 -37.1877154,-37.50023 -13.6612206,13.43941 -34.0784636,6.72059 -61.2520856,-20.1561 2.974252,-23.76567 -8.69244,-27.82807 -35.000077,-12.18756 -12.632956,-6.24508 -21.904726,-10.8287 -27.815316,-13.75051 z"
       class="territorio"
       inkscape:connector-curvature="0" />
    <path
       style="fill-rule:evenodd"
       id="path3047"
       d="M -14.722506,83.672808 C 3.4217061,59.143202 17.016312,35.261313 26.060603,12.027849 c 4.422402,19.592716 6.014055,35.48055 4.775315,47.663148 17.808661,-3.955393 26.975551,0.419528 27.49996,13.125118 -28.048818,46.193385 -25.548661,68.068345 7.500118,65.625235 0.411378,15.83504 -9.17185,21.04335 -28.750039,15.62492 -13.424527,2.45764 -15.299291,10.1661 -5.625,23.12504 -0.397559,9.93472 -4.097125,14.77807 -11.097991,14.53004 -23.5293306,-4.97055 -41.237362,-8.0954 -53.124802,-9.37488 -10.879724,-47.92323 -40.804015,-76.12689 -89.773224,-84.61134 23.236651,-2.744645 40.528343,-6.703228 51.875075,-11.875039 -1.602638,-7.931693 -1.810984,-15.640157 -0.625039,-23.125039 16.044094,-0.34122 32.085708,-0.757913 48.124841,-1.250078 0.151654,12.132637 2.964331,19.528582 8.437677,22.187834 z"
       class="territorio"
       inkscape:connector-curvature="0" />
    <path
       style="fill-rule:evenodd"
       id="path3049"
       d="m 10.049462,326.68697 c -13.4238187,23.95559 -33.137362,38.06575 -59.141337,42.33012 2.572795,14.16756 18.801495,18.03756 48.68680955,11.61 6.05763765,17.57091 13.14106245,36.73736 21.24992045,57.50008 8.050394,-13.36784 17.234291,-24.58063 27.550275,-33.64228 -10.59059,9.17716 -19.774487,20.39102 -27.550275,33.64228 -2.835354,11.37472 -1.324134,23.40567 4.533662,36.09248 25.427125,-22.09004 48.552164,-34.59012 69.375116,-37.50024 -10.996299,-7.25244 -20.788228,-15.79393 -29.375078,-25.62484 4.32,-5.89039 11.195078,-10.89071 20.624881,-15.00023 1.466221,-3.50398 -0.669685,-7.20142 -6.408425,-11.09233 C 56.600012,366.82945 42.22517,360.16308 36.470131,365.00217 26.716824,360.21764 26.091784,350.63442 34.595012,336.25213 23.317021,329.11379 15.13517,325.92552 10.049462,326.68697 z"
       class="territorio"
       inkscape:connector-curvature="0" />
    <path
       style="fill-rule:evenodd"
       id="path3051"
       d="m 36.160445,465.31886 c -3.265157,2.53807 -6.859133,5.50453 -10.781928,8.89973 5.967637,10.22527 5.967637,25.22551 0,44.99999 13.177913,6.25678 17.552834,18.9652 13.125117,38.12492 21.372165,1.07717 45.538936,-4.13114 72.499956,-15.62492 -5.61366,-6.14693 -4.98862,-11.77192 1.87512,-16.875 -10.04138,-6.67027 -16.916455,-13.54535 -20.625234,-20.62523 10.721334,-18.76819 23.846454,-32.93504 39.374994,-42.49984 -1.10905,-7.78961 -13.40078,-16.12311 -36.874837,-25.00016 -20.70496,3.89587 -40.236023,13.42949 -58.593188,28.60051 z m 23.777362,25.79811 c -9.367795,-6.48673 -17.293818,-15.08598 -23.777362,-25.79811 7.208859,10.82728 15.134882,19.42654 23.777362,25.79811 z"
       class="territorio"
       inkscape:connector-curvature="0" />
    <path
       style="fill-rule:evenodd"
       id="path3053"
       d="m 92.253476,504.22083 c 12.194644,-20.26028 25.319764,-34.42713 39.374994,-42.49984 7.9891,8.80724 22.3643,11.41157 43.1263,7.81264 10.65118,2.47818 19.08851,9.35291 25.31268,20.62488 -14.41134,1.54913 -22.1198,8.42421 -23.12504,20.62523 -0.89256,5.85461 -3.49653,10.02118 -7.81264,12.50008 7.56638,13.60701 4.96205,25.16953 -7.81263,34.68756 -5.93682,12.46677 -15.93674,8.71689 -29.99977,-11.25 -7.7524,-3.44232 -14.52366,-5.1091 -20.31378,-5.00032 -5.59594,-6.29539 -4.9709,-11.92039 1.87512,-16.875 -10.63665,-7.32118 -17.511731,-14.19625 -20.625234,-20.62523 z"
       class="territorio"
       inkscape:connector-curvature="0" />
    <path
       style="fill-rule:evenodd"
       id="path3055"
       d="M 45.890721,-53.824157 C 41.398162,-31.620024 34.788123,-9.6695916 26.060603,12.02714 28.919698,27.795565 31.62395,43.463006 34.17265,59.029108 46.085957,54.86643 54.140248,59.4621 58.335878,72.815406 73.497689,63.123753 92.718357,48.382533 115.99788,28.591392 124.73497,29.696903 130.98501,30.113596 134.748,29.84147 129.22434,16.57214 119.01572,3.6553687 104.12285,-8.9088436 95.195129,-12.045025 92.903318,-19.128095 97.247767,-30.158764 c -7.494803,0.600236 -14.161535,0.808582 -19.999842,0.625039 -5.004213,-12.101456 -15.456614,-20.198267 -31.357204,-24.290432 z"
       class="territorio"
       inkscape:connector-curvature="0" />
    <path
       style="fill-rule:evenodd"
       id="path3057"
       d="m 34.595012,336.2539 c 31.277834,0.58819 50.861338,-2.95334 58.750156,-10.62496 16.340312,15.59693 42.118582,19.81382 77.334802,12.65067 -5.65228,10.25256 -5.02724,19.62744 1.87512,28.125 4.15134,17.02843 -7.30701,28.69512 -34.37504,35.00008 -6.13984,9.73842 -15.30638,14.32169 -27.49996,13.7498 -3.09083,10.73977 -4.63146,19.46658 -4.62189,26.18079 -19.112953,-9.42307 -32.672834,-19.50272 -40.679645,-30.23894 5.566535,-6.77551 12.44126,-11.77547 20.624881,-15.00023 1.190552,-4.06276 -0.945708,-7.7602 -6.408425,-11.09233 C 58.127177,367.23304 43.752335,360.56666 36.470131,365.00394 26.908162,360.91745 26.283123,351.33386 34.595012,336.2539 z"
       class="territorio"
       inkscape:connector-curvature="0" />
    <path
       style="fill-rule:evenodd"
       id="path3059"
       d="m 170.65977,470.17319 c 10.39181,-1.25149 20.19437,5.40957 29.40768,19.9839 4.97551,-31.39087 19.8698,-52.48594 44.68252,-63.28594 -12.57591,-6.60544 -20.49236,-13.89721 -23.75008,-21.87496 -20.94307,3.12555 -39.02634,-2.45658 -54.24945,-16.74709 -5.91271,5.74972 -15.43641,10.13421 -28.57039,13.15382 -6.48567,9.90921 -15.65256,14.49248 -27.49996,13.7498 -2.68264,8.53051 -4.22327,17.25732 -4.62189,26.18079 14.84716,5.99138 23.37059,12.78673 25.57027,20.38606 13.00996,9.03402 26.02063,11.85201 39.0313,8.45362 z"
       class="territorio"
       inkscape:connector-curvature="0" />
    <path
       style="fill-rule:evenodd"
       id="path3061"
       d="m 249.12666,240.62005 c -1.48146,-23.35146 12.06,-40.22646 40.62508,-50.625 -17.33244,-16.7439 -37.33228,-43.20213 -59.99988,-79.37504 -9.56303,7.86614 -22.8965,0.36603 -40.00004,-22.499998 -7.87606,15.962948 -9.75118,30.337798 -5.625,43.124878 -8.01071,11.24256 -14.26075,17.70095 -18.75012,19.37516 12.01004,12.01004 17.01,21.17657 14.99988,27.49996 -10.17389,3.80161 -17.882,7.34315 -23.12504,10.62496 0.61016,9.16228 0.81851,17.70413 0.62504,25.62484 26.39941,19.23236 44.73284,38.60752 55.00028,58.12512 2.28614,8.72823 2.49449,17.27008 0.62504,25.6252 19.1583,10.6207 37.69972,10.82905 55.62496,0.62503 -1.56756,-18.63708 -8.23429,-38.01224 -20.0002,-58.12511 z"
       class="territorio"
       inkscape:connector-curvature="0" />
    <path
       style="fill-rule:evenodd"
       id="path3063"
       d="m 161.62753,284.3728 c 11.08027,15.32516 28.37197,19.90843 51.87508,13.75016 -7.02142,1.55409 -11.188,12.59575 -12.50008,33.12496 -4.05886,5.09917 -10.72559,6.14091 -20.0002,3.12484 -6.88145,2.60504 -10.32236,3.90756 -10.32236,3.90756 -39.35445,5.91236 -65.13272,1.69547 -77.334802,-12.65067 -3.947952,-11.04023 -11.239724,-19.16539 -21.875314,-24.37512 8.101417,-25.5646 19.195511,-31.40007 33.282636,-17.50677 15.76878,-9.73417 24.31063,-21.19252 25.62484,-34.37504 7.65248,-6.8896 18.06945,4.77709 31.2502,35.00008 z"
       class="territorio"
       inkscape:connector-curvature="0" />
    <path
       style="fill-rule:evenodd"
       id="path3065"
       d="m 161.62753,284.3728 c 11.76555,15.43996 28.8776,20.07 51.33579,13.88977 6.46228,-26.79945 -11.89985,-54.76252 -55.08603,-83.88992 0.17752,-8.55036 -0.0308,-17.09221 -0.62504,-25.62484 -27.41067,-19.665 -50.5357,-28.4152 -69.374759,-26.24989 7.377874,13.69701 10.91941,28.69689 10.624961,45 6.506928,17.59677 17.301258,31.41248 32.383348,41.44748 10.9272,-3.18118 21.17445,8.62795 30.74173,35.4274 z"
       class="territorio"
       inkscape:connector-curvature="0" />
    <path
       style="fill-rule:evenodd"
       id="path3067"
       d="m 98.502452,207.49721 c 0.381614,-15.93 -3.159921,-30.92988 -10.624961,-44.99999 -9.655157,-6.92504 -17.699881,-11.28827 -24.134172,-13.08969 -3.429213,6.85346 -12.314764,8.4065 -26.657362,4.65909 -13.74307,4.303 -15.618188,12.01146 -5.625,23.12504 0.637796,8.40366 -3.061417,13.24701 -11.097991,14.53004 -1.45063,19.97292 5.841141,36.01453 21.875314,48.12484 0.905669,5.42339 0.357874,10.7093 -1.643386,15.85843 8.685709,16.25634 18.977244,31.43941 30.87496,45.54886 8.256968,-25.60996 19.351063,-31.44579 33.282636,-17.50678 16.26201,-10.6572 24.97323,-22.25799 26.13331,-34.80236 -18.28666,-14.83476 -29.08134,-28.65047 -32.383348,-41.44748 z"
       class="territorio"
       inkscape:connector-curvature="0" />
    <path
       style="fill-rule:evenodd"
       id="path3069"
       d="M 77.247925,-29.533725 C 70.802649,-42.71589 60.350248,-50.812701 45.890721,-53.824157 c 3.541181,-16.59437 6.253582,-35.762244 8.13685,-57.503973 22.973031,3.80055 42.068975,-1.69547 57.288539,-16.48878 11.85626,-1.17496 19.56437,4.45004 23.12504,16.875 28.38402,-4.54961 50.25898,-19.3415 65.62524,-44.37496 6.97216,13.54394 7.59685,29.3772 1.87476,47.4998 -15.32303,0.96343 -22.6148,9.296929 -21.87496,25.000157 -5.03398,14.840433 -13.78382,22.340197 -26.24988,22.5 2.72161,17.492598 7.92992,30.409015 15.62492,38.749959 -9.77988,10.809213 -19.36311,15.6008269 -28.75004,14.3748427 3.34843,10.7309052 -4.45252,14.3259445 -23.40248,10.7854721 -3.52736,-3.86433058 -7.9161,-8.0319683 -13.16586,-12.5022044 -9.336264,-4.6105514 -11.628075,-11.6939764 -6.875083,-21.2499204 -6.655394,0.572598 -13.322126,0.780945 -19.999842,0.625039 z"
       class="territorio"
       inkscape:connector-curvature="0" />
    <path
       style="fill-rule:evenodd"
       id="path3071"
       d="m 181.00198,178.11966 c -3.12803,-13.52268 -8.12799,-22.68922 -14.99988,-27.49996 -22.00359,-4.34445 -34.50083,-11.84386 -37.49174,-22.49823 4.53863,-1.80355 7.24713,-4.7204 8.12481,-8.7502 -10.09595,-8.3576 -21.1376,-9.19063 -33.12496,-2.4998 0.20941,-8.76473 0.83445,-17.514923 1.87512,-26.249883 -4.19882,-2.784331 -5.86524,-6.742559 -4.99996,-11.875039 0.74515,-8.145708 -0.921265,-16.270866 -4.999965,-24.375118 0.47374,2.363386 0,0 -1.421221,-7.090157 -16.714488,13.003583 -28.382598,21.514252 -35.003621,25.532716 -28.871928,44.086891 -26.372125,65.961851 7.500118,65.625231 -1.395,7.31055 -2.092677,10.96583 -2.092677,10.96583 11.532047,4.8972 19.576771,9.26043 24.134172,13.08968 26.009294,0.75792 49.134334,9.50811 69.374764,26.24989 15.41657,-7.08343 23.12504,-10.62496 23.12504,-10.62496 z"
       class="territorio"
       inkscape:connector-curvature="0" />
    <path
       style="fill-rule:evenodd"
       id="path3073"
       d="m 136.63517,119.37163 c -1.16433,4.33063 -3.87248,7.24748 -8.12481,8.75019 2.87575,10.56508 15.373,18.06449 37.49174,22.49823 7.10185,-5.1952 13.14354,-11.65394 18.12543,-19.37551 -3.79382,-15.06791 -1.9187,-29.44276 5.625,-43.124882 11.31271,19.602992 24.64582,27.103112 40.00004,22.500002 0.23067,-14.082168 -6.43217,-34.34138 -19.9878,-60.777993 -23.85815,-1.852795 -41.77488,-6.228071 -53.75019,-13.125118 -8.59642,6.258543 -15.68552,3.966378 -21.26658,-6.876496 -7.57346,-0.05209 -13.8235,-0.468779 -18.75012,-1.250079 -10.85456,8.854725 -18.199129,15.085276 -22.033696,18.691653 5.326654,14.313543 7.467166,24.801732 6.421186,31.465275 -0.901776,5.044961 0.76464,9.003543 4.99996,11.875039 -1.20367,11.442399 -1.82871,20.192239 -1.87512,26.249879 12.78425,-6.59693 23.8259,-5.76354 33.12496,2.49981 z"
       class="territorio"
       inkscape:connector-curvature="0" />
    <path
       style="fill-rule:evenodd"
       id="path3075"
       d="m 180.06619,-82.816913 c 12.51815,11.164252 26.94862,14.603031 43.29212,10.316693"
       class="territorio"
       inkscape:connector-curvature="0" />
    <path
       style="fill-rule:evenodd"
       id="path3077"
       d="m 180.06619,-82.816913 c 12.6535,10.622126 25.92815,14.327362 39.82429,11.116063 21.1911,-6.270236 36.51378,-4.244882 45.96803,6.075709 -22.13079,9.588188 -37.75571,22.296613 -46.87512,38.125274 4.08898,5.936811 7.21382,13.853622 9.37489,23.7497241 -7.67374,4.38661404 -7.67374,12.3030705 0,23.7500779 8.34732,2.599016 10.84712,10.515827 7.50011,23.750078 -5.94602,0.297284 -14.64378,2.328307 -26.09362,6.093071 C 190.91898,49.140446 173.00225,44.765525 156.01458,36.717966 146.43985,42.624305 139.35076,40.332139 134.748,29.84147 126.6441,15.317101 120.82422,6.5679671 117.28871,3.5933608 c 18.9124,3.5751968 26.71335,-0.020197 23.40248,-10.7854721 11.83713,-0.090709 21.42071,-4.8823227 28.75004,-14.3748427 -9.55205,-13.693818 -14.76035,-26.610589 -15.62492,-38.749959 13.83874,-1.397126 22.58858,-8.897244 26.24988,-22.5 z"
       class="territorio"
       inkscape:connector-curvature="0" />
    <path
       style="fill-rule:evenodd"
       id="path3079"
       d="m 218.98339,-27.499867 c 11.49839,-17.717243 27.12331,-30.425668 46.87512,-38.125274 -6.23303,14.919094 -4.98295,23.460944 3.74988,25.625196 16.76055,-3.455079 26.96918,-1.163268 30.62516,6.875078 -13.55988,4.717205 -19.80992,13.884095 -18.75012,27.4999603 -16.8874,8.6974014 -19.38756,26.8224797 -7.50012,54.3748807 -14.04,-3.967087 -26.74807,-5.633858 -38.12492,-4.999961 4.07481,-10.290826 1.57465,-18.207637 -7.50011,-23.750078 -7.4367,-8.285669 -7.4367,-16.2024797 0,-23.7500779 -2.55367,-10.7989371 -5.67886,-18.7153931 -9.37489,-23.7497241 z"
       class="territorio"
       inkscape:connector-curvature="0" />
    <path
       style="fill-rule:evenodd"
       id="path3081"
       d="m 220.99989,404.9976 c 25.11461,-24.13913 37.88043,-41.74228 38.29748,-52.80944 10.00417,-16.89662 13.28102,-34.71024 9.8302,-53.44122 -18.60591,10.14519 -37.32733,9.98326 -56.16425,-0.48544 -8.33103,8.82248 -13.08154,20.56571 -14.25119,35.22969 -4.57724,3.13122 -10.48074,3.4246 -17.7098,0.88051 -6.88145,2.60504 -10.32236,3.90756 -10.32236,3.90756 -5.47476,11.51114 -4.84972,20.88638 1.87512,28.125 2.41051,7.13232 0.47551,14.41452 -5.80465,21.84626 17.34768,14.86027 35.43059,20.44275 54.24945,16.74708 z"
       class="territorio"
       inkscape:connector-curvature="0" />
    <path
       style="fill-rule:evenodd"
       id="path3083"
       d="m 259.29595,352.18816 c 10.27666,-18.67359 13.55351,-36.48756 9.8302,-53.44122 10.66004,13.68815 28.32094,19.10622 52.98271,16.25421 15.16748,-3.79843 25.37575,-10.25681 30.62481,-19.37516 8.61448,4.90181 13.51027,10.00595 14.68771,15.3124 -3.89445,9.12827 -13.9989,23.60729 -30.31263,43.43776 -4.33276,11.78964 -24.02044,26.16449 -59.06268,43.12488 -7.32437,8.77712 -18.42378,18.56764 -33.29752,29.37153 -13.46457,-7.56956 -21.38138,-14.86098 -23.75008,-21.87496 25.54689,-24.91086 38.31272,-42.51401 38.29748,-52.80944 z"
       class="territorio"
       inkscape:connector-curvature="0" />
    <path
       style="fill-rule:evenodd"
       id="path3085"
       d="m 269.12863,298.748 c -0.94465,-16.63264 -7.61138,-36.0078 -20.0002,-58.12512 -2.36303,-22.00819 11.17878,-38.88319 40.62508,-50.625 8.4639,17.57303 21.8537,29.55366 40.17012,35.94189 12.70452,4.68425 30.41291,17.39268 53.1248,38.12492 2.86724,23.2604 -4.27536,35.87528 -21.4278,37.84429 2.9615,2.0941 0,0 -8.88448,-6.28193 -7.57099,10.51902 -17.77926,16.97741 -30.62481,19.37516 -24.71279,2.83323 -42.3737,-2.58484 -52.98271,-16.25421 z"
       class="territorio"
       inkscape:connector-curvature="0" />
    <path
       style="fill-rule:evenodd"
       id="path3087"
       d="m 209.76477,49.844856 c 17.2063,-7.886339 38.61248,-8.250591 64.21854,-1.09311 28.28587,6.582755 44.22473,22.520196 47.81658,47.812321 -10.6813,14.910593 -18.59811,23.035743 -23.75008,24.375113 -3.62055,37.70115 5.33799,63.53433 26.87527,77.49992 5.42516,13.19599 8.81185,23.09989 10.16044,29.7124 -26.12729,-11.897 -41.23807,-24.61499 -45.33307,-38.15362 -27.6176,-31.11732 -47.61744,-57.57555 -59.99988,-79.37503 -3.81366,-24.861971 -10.4765,-45.121538 -19.9878,-60.777994 z"
       class="territorio"
       inkscape:connector-curvature="0" />
    <path
       style="fill-rule:evenodd"
       id="path3089"
       d="m 298.0491,120.93777 c 9.69697,-6.29469 17.61378,-14.41984 23.75008,-24.37512 15.23161,2.913661 27.73169,19.58067 37.50059,50.00067 1.75996,37.97397 14.67638,51.09909 38.74996,39.375 7.21771,8.22366 13.05106,15.30708 17.50004,21.24992 -7.89272,4.36393 -9.14244,14.9889 -3.74988,31.87523 -10.01552,3.79949 -20.34497,11.45622 -30.9887,22.9702 -14.52119,-13.75335 -29.76343,-25.04799 -45.72638,-33.88358 -4.01634,-13.80721 -7.40303,-23.71146 -10.16043,-29.7124 -23.55945,-20.46827 -32.518,-46.30146 -26.87528,-77.49992 z"
       class="territorio"
       inkscape:connector-curvature="0" />
    <path
       style="fill-rule:evenodd"
       id="path3091"
       d="m 398.05185,185.93973 c 6.09697,6.868 11.93032,13.95107 17.50004,21.24993 8.69847,-18.36532 19.32343,-30.03201 31.87524,-34.99973 21.36968,-2.92429 29.07815,-20.42433 23.12504,-52.50012 -16.50827,1.21217 -38.38323,8.92063 -65.62524,23.12504 -11.65145,-6.72626 -21.85972,-5.89322 -30.62515,2.49981 -4.00855,2.98523 -9.00851,3.40193 -14.99989,1.25008 1.89142,38.06184 14.80819,51.18696 38.74996,39.37499 z"
       class="territorio"
       inkscape:connector-curvature="0" />
    <path
       style="fill-rule:evenodd"
       id="path3093"
       d="m 273.98296,48.749974 c -11.60646,-28.455944 -9.1063,-46.5810226 7.50012,-54.3748807 15.97819,2.9622047 31.50035,4.5248031 46.56685,4.6877952 18.27177,19.1274795 50.56334,36.2108255 96.87507,51.2500385 -7.19433,9.258661 -21.36082,11.967165 -42.49984,8.125157 -10.31988,1.022598 -22.61161,4.981181 -36.87519,11.875039 -12.74422,-4.567323 -21.54898,0.383386 -26.4143,14.85248 -9.00602,-20.764488 -24.05692,-32.903149 -45.15271,-36.415629 z"
       class="territorio"
       inkscape:connector-curvature="0" />
    <path
       style="fill-rule:evenodd"
       id="path3095"
       d="m 382.42587,58.437375 c 20.15894,4.100315 34.32543,1.391811 42.49984,-8.125157 47.9863,12.624448 64.86165,28.666417 50.62535,48.125196 -4.58787,4.507086 -6.25429,11.590516 -4.99996,21.249916 -18.90177,2.01863 -40.77708,9.72709 -65.62523,23.12504 -10.88185,-6.77941 -21.09012,-5.94602 -30.62516,2.49981 -4.75582,3.03413 -9.75578,3.45082 -14.99988,1.25007 -6.98457,-26.89936 -19.48464,-43.56602 -37.50059,-50.000663 -0.67146,-4.440827 -1.55941,-8.239961 -2.66386,-11.396693 4.9167,-14.49496 13.72146,-19.445669 26.41429,-14.85248 14.293,-6.902716 26.58473,-10.860944 36.8752,-11.875039 z"
       class="territorio"
       inkscape:connector-curvature="0" />
  </g>
</svg>
